<svg width="400" height="400" viewBox="0 0 400 400" fill="none" xmlns="http://www.w3.org/2000/svg">
<style>
        .mid-squiggles { fill: #D2ECFE; }
    </style>
<g clip-path="url(#clip0_101_2)">
<circle cx="200" cy="200" r="200" fill="white"/>
<path fill-rule="evenodd" clip-rule="evenodd" d="M38.9397 176.508C17.1452 198.302 17.1452 233.638 38.9397 255.433L44.5635 261.057C49.6338 266.127 57.8545 266.127 62.9248 261.057V261.057C67.9952 255.986 67.9952 247.766 62.9248 242.695L57.3011 237.071C45.6472 225.418 45.6472 206.523 57.3011 194.869L72.1055 180.065L53.7442 161.703L38.9397 176.508Z" fill="url(#paint0_linear_101_2)"/>
<path fill-rule="evenodd" clip-rule="evenodd" d="M68.3562 147.091C90.1507 125.297 125.487 125.297 147.281 147.091L152.905 152.715C157.975 157.785 157.975 166.006 152.905 171.076V171.076C147.835 176.147 139.614 176.147 134.544 171.076L128.92 165.453C117.266 153.799 98.3714 153.799 86.7175 165.453L71.9131 180.257L53.5517 161.896L68.3562 147.091Z" fill="url(#paint1_linear_101_2)"/>
<path fill-rule="evenodd" clip-rule="evenodd" d="M369.908 226.402C391.703 204.608 391.703 169.272 369.908 147.477L364.284 141.853C359.214 136.783 350.993 136.783 345.923 141.853V141.853C340.853 146.924 340.853 155.144 345.923 160.215L351.547 165.839C363.201 177.492 363.201 196.387 351.547 208.041L336.742 222.845L355.104 241.207L369.908 226.402Z" fill="url(#paint2_linear_101_2)"/>
<path fill-rule="evenodd" clip-rule="evenodd" d="M340.492 255.819C318.697 277.613 283.361 277.613 261.567 255.819L255.943 250.195C250.873 245.125 250.873 236.904 255.943 231.834V231.834C261.013 226.763 269.234 226.763 274.304 231.834L279.928 237.457C291.582 249.111 310.477 249.111 322.13 237.457L336.935 222.653L355.296 241.014L340.492 255.819Z" fill="url(#paint3_linear_101_2)"/>
<path class="mid-squiggles" fill-rule="evenodd" clip-rule="evenodd" d="M219.632 166.899C241.426 145.105 276.762 145.105 298.557 166.899L313.698 182.04C318.768 187.111 318.768 195.331 313.698 200.402V200.402C308.627 205.472 300.407 205.472 295.336 200.402L280.196 185.261C268.542 173.607 249.647 173.607 237.993 185.261L213.576 209.678L195.214 191.317L219.632 166.899Z"/>
<path class="mid-squiggles" fill-rule="evenodd" clip-rule="evenodd" d="M189.321 234C167.526 255.794 132.19 255.794 110.396 234L95.1586 218.763C90.0883 213.693 90.0883 205.472 95.1586 200.402V200.402C100.229 195.331 108.45 195.331 113.52 200.402L128.757 215.639C140.411 227.292 159.305 227.292 170.959 215.639L195.377 191.221L213.738 209.582L189.321 234Z"/>
</g>
<defs>
<linearGradient id="paint0_linear_101_2" x1="92.3397" y1="130.745" x2="92.3397" y2="270.237" gradientUnits="userSpaceOnUse">
<stop stop-color="#FDD64B"/>
<stop offset="1" stop-color="#FDC04B"/>
</linearGradient>
<linearGradient id="paint1_linear_101_2" x1="92.3397" y1="130.745" x2="92.3397" y2="270.237" gradientUnits="userSpaceOnUse">
<stop stop-color="#FDD64B"/>
<stop offset="1" stop-color="#FDC04B"/>
</linearGradient>
<linearGradient id="paint2_linear_101_2" x1="316.508" y1="132.673" x2="316.508" y2="272.165" gradientUnits="userSpaceOnUse">
<stop stop-color="#3E936F"/>
<stop offset="1" stop-color="#389E98"/>
</linearGradient>
<linearGradient id="paint3_linear_101_2" x1="316.508" y1="132.673" x2="316.508" y2="272.165" gradientUnits="userSpaceOnUse">
<stop stop-color="#3E936F"/>
<stop offset="1" stop-color="#389E98"/>
</linearGradient>
<clipPath id="clip0_101_2">
<rect width="400" height="400" fill="#FAFAF7"/>
</clipPath>
</defs>
</svg>
