<svg fill="none" height="163" viewBox="0 0 364 163" width="364" xmlns="http://www.w3.org/2000/svg" xmlns:xlink="http://www.w3.org/1999/xlink"><linearGradient id="a" gradientUnits="userSpaceOnUse" x1="133.437" x2="133.437" y1="30.2187" y2="90.6561"><stop offset="0" stop-color="#fdd64b"/><stop offset="1" stop-color="#fdc04b"/></linearGradient><linearGradient id="b" gradientUnits="userSpaceOnUse" x1="230.563" x2="230.563" y1="31.0535" y2="91.491"><stop offset="0" stop-color="#3e936f"/><stop offset="1" stop-color="#389e98"/></linearGradient><g clip-rule="evenodd" fill-rule="evenodd"><path d="m110.301 50.0461c-9.443 9.4429-9.443 24.7528 0 34.1957l2.437 2.4366c2.196 2.1969 5.758 2.1969 7.955 0 2.197-2.1968 2.197-5.7585 0-7.9554l-2.437-2.4366c-5.049-5.0492-5.049-13.2356 0-18.2849l6.415-6.4143-7.956-7.9554z" fill="url(#a)"/><path d="m123.046 37.3009c9.443-9.4429 24.753-9.4429 34.196 0l2.436 2.4366c2.197 2.1968 2.197 5.7585 0 7.9554-2.196 2.1968-5.758 2.1968-7.955 0l-2.437-2.4366c-5.049-5.0493-13.235-5.0493-18.284 0l-6.415 6.4143-7.955-7.9554z" fill="url(#a)"/><path d="m253.699 71.6635c9.443-9.4429 9.443-24.7528 0-34.1957l-2.436-2.4366c-2.197-2.1969-5.759-2.1969-7.956 0-2.197 2.1968-2.197 5.7585 0 7.9554l2.437 2.4366c5.049 5.0492 5.049 13.2357 0 18.2849l-6.414 6.4143 7.955 7.9554z" fill="url(#b)"/><path d="m240.954 84.4088c-9.443 9.4429-24.753 9.4429-34.196 0l-2.436-2.4366c-2.197-2.1968-2.197-5.7586 0-7.9554s5.758-2.1968 7.955 0l2.437 2.4366c5.049 5.0493 13.235 5.0493 18.285 0l6.414-6.4143 7.955 7.9554z" fill="url(#b)"/><path d="m188.589 45.883c9.443-9.4429 24.753-9.4429 34.196 0l6.56 6.56c2.197 2.1969 2.197 5.7586 0 7.9554-2.197 2.1969-5.758 2.1969-7.955 0l-6.56-6.56c-5.05-5.0493-13.236-5.0493-18.285 0l-10.58 10.5794-7.955-7.9554z" fill="#d2ecfe"/><path d="m175.456 74.9555c-9.443 9.4429-24.753 9.4429-34.195 0l-6.602-6.6018c-2.197-2.1968-2.197-5.7585 0-7.9554 2.197-2.1968 5.758-2.1968 7.955 0l6.602 6.6018c5.049 5.0492 13.236 5.0492 18.285 0l10.579-10.5795 7.956 7.9554z" fill="#d2ecfe"/></g><path d="m.82274 142.802c0-1.704.34281-3.193 1.02842-4.466.70521-1.274 1.67487-2.253 2.90898-2.939 1.2537-.685 2.6837-1.028 4.29-1.028 2.05686 0 3.77086.539 5.14216 1.616 1.3908 1.077 2.3017 2.596 2.7326 4.554h-5.3478c-.4505-1.253-1.3222-1.88-2.61511-1.88-.92069 0-1.65528.362-2.20377 1.087-.54849.705-.82274 1.724-.82274 3.056s.27425 2.36.82274 3.085c.54849.705 1.28308 1.058 2.20377 1.058 1.29291 0 2.16461-.627 2.61511-1.88h5.3478c-.4309 1.919-1.3418 3.428-2.7326 4.525-1.3909 1.097-3.1049 1.645-5.14216 1.645-1.6063 0-3.0363-.343-4.29-1.028-1.23411-.686-2.20377-1.665-2.90898-2.939-.68561-1.273-1.02842-2.762-1.02842-4.466zm26.25326 8.433c-1.6063 0-3.0559-.343-4.3487-1.028-1.2733-.686-2.2822-1.665-3.0265-2.939-.7248-1.273-1.0872-2.762-1.0872-4.466 0-1.685.3722-3.164 1.1165-4.437.7444-1.293 1.7631-2.282 3.0559-2.968 1.2929-.685 2.7425-1.028 4.3488-1.028s3.0559.343 4.3488 1.028c1.2928.686 2.3115 1.675 3.0559 2.968.7443 1.273 1.1165 2.752 1.1165 4.437s-.382 3.173-1.1459 4.466c-.7444 1.274-1.7728 2.253-3.0853 2.939-1.2929.685-2.7425 1.028-4.3488 1.028zm0-4.349c.9599 0 1.7728-.352 2.4389-1.058.6856-.705 1.0284-1.714 1.0284-3.026s-.333-2.321-.999-3.027c-.6465-.705-1.4496-1.057-2.4095-1.057-.9795 0-1.7924.352-2.4388 1.057-.6465.686-.9697 1.695-.9697 3.027 0 1.312.3134 2.321.9403 3.026.6464.706 1.4496 1.058 2.4094 1.058zm32.1668-12.458c2.0372 0 3.6533.617 4.8483 1.851 1.2145 1.234 1.8217 2.948 1.8217 5.142v9.579h-4.9952v-8.903c0-1.058-.284-1.871-.8521-2.439-.5485-.588-1.3125-.882-2.2919-.882-.9795 0-1.7532.294-2.3213.882-.5485.568-.8227 1.381-.8227 2.439v8.903h-4.9953v-8.903c0-1.058-.284-1.871-.8521-2.439-.5485-.588-1.3124-.882-2.2919-.882-.9794 0-1.7532.294-2.3213.882-.5485.568-.8227 1.381-.8227 2.439v8.903h-5.0246v-16.396h5.0246v2.057c.5093-.686 1.1753-1.224 1.998-1.616.8228-.412 1.7533-.617 2.7915-.617 1.2341 0 2.3311.264 3.2909.793.9795.529 1.7435 1.283 2.292 2.263.568-.902 1.3418-1.636 2.3213-2.204.9794-.568 2.047-.852 3.2028-.852zm15.2087 2.497c.4897-.764 1.1656-1.381 2.0275-1.851s1.8707-.705 3.0265-.705c1.3516 0 2.576.343 3.6729 1.028 1.097.686 1.9589 1.665 2.5858 2.939.6464 1.273.9696 2.752.9696 4.437 0 1.684-.3232 3.173-.9696 4.466-.6269 1.273-1.4888 2.262-2.5858 2.968-1.0969.685-2.3213 1.028-3.6729 1.028-1.1362 0-2.145-.235-3.0265-.705-.8619-.47-1.5378-1.078-2.0275-1.822v10.108h-5.0246v-24.212h5.0246zm7.1696 5.848c0-1.254-.3526-2.234-1.0578-2.939-.6856-.725-1.5377-1.087-2.5564-1.087-.999 0-1.8511.362-2.5563 1.087-.6857.725-1.0285 1.714-1.0285 2.968s.3428 2.243 1.0285 2.968c.7052.725 1.5573 1.087 2.5563 1.087.9991 0 1.8512-.362 2.5564-1.087.7052-.745 1.0578-1.744 1.0578-2.997zm6.7497 0c0-1.685.3135-3.164.9403-4.437.6464-1.274 1.5182-2.253 2.6151-2.939 1.097-.685 2.3213-1.028 3.673-1.028 1.1557 0 2.1646.235 3.0265.705.8815.47 1.5573 1.087 2.0273 1.851v-2.321h5.025v16.396h-5.025v-2.321c-.49.764-1.1752 1.381-2.0567 1.851-.8619.47-1.8707.705-3.0265.705-1.332 0-2.5466-.343-3.6436-1.028-1.0969-.706-1.9687-1.695-2.6151-2.968-.6268-1.293-.9403-2.782-.9403-4.466zm12.2822.029c0-1.254-.352-2.243-1.0576-2.968-.6857-.725-1.528-1.087-2.527-1.087-.9991 0-1.8512.362-2.5564 1.087-.6856.705-1.0284 1.685-1.0284 2.939 0 1.253.3428 2.252 1.0284 2.997.7052.725 1.5573 1.087 2.5564 1.087.999 0 1.8413-.362 2.527-1.087.7056-.725 1.0576-1.714 1.0576-2.968zm13.684-5.465c.588-.901 1.323-1.607 2.204-2.116.882-.529 1.861-.793 2.939-.793v5.318h-1.381c-1.254 0-2.194.274-2.821.823-.627.529-.941 1.469-.941 2.821v7.61h-5.024v-16.396h5.024zm23 5.201c0 .47-.029.959-.088 1.469h-11.372c.079 1.018.402 1.802.97 2.35.588.529 1.303.794 2.145.794 1.254 0 2.125-.529 2.615-1.587h5.348c-.274 1.077-.774 2.047-1.499 2.909-.705.862-1.596 1.538-2.674 2.027-1.077.49-2.282.735-3.614.735-1.606 0-3.036-.343-4.29-1.028-1.253-.686-2.233-1.665-2.938-2.939-.705-1.273-1.058-2.762-1.058-4.466s.343-3.193 1.029-4.466c.705-1.274 1.684-2.253 2.938-2.939 1.254-.685 2.693-1.028 4.319-1.028 1.587 0 2.997.333 4.232.999 1.234.666 2.194 1.616 2.879 2.85.705 1.234 1.058 2.674 1.058 4.32zm-5.142-1.323c0-.862-.294-1.547-.882-2.057-.587-.509-1.322-.764-2.203-.764-.843 0-1.558.245-2.145.735-.569.49-.921 1.185-1.058 2.086z" fill="#fdd64c"/><path d="m148.012 151.235c-1.842 0-3.35-.421-4.525-1.263-1.156-.862-1.803-2.028-1.94-3.497h2.116c.098.901.519 1.636 1.263 2.204.764.548 1.783.822 3.056.822 1.117 0 1.989-.264 2.616-.793.646-.529.969-1.185.969-1.969 0-.548-.176-.999-.529-1.351-.352-.353-.803-.627-1.351-.823-.529-.215-1.254-.441-2.175-.676-1.195-.313-2.164-.627-2.909-.94-.744-.314-1.381-.774-1.91-1.381-.509-.627-.764-1.46-.764-2.498 0-.783.235-1.508.706-2.174.47-.666 1.136-1.195 1.998-1.587s1.841-.587 2.938-.587c1.724 0 3.115.44 4.172 1.322 1.058.862 1.626 2.057 1.705 3.585h-2.057c-.059-.941-.431-1.695-1.117-2.263-.666-.588-1.586-.881-2.762-.881-1.038 0-1.88.244-2.527.734-.646.49-.969 1.097-.969 1.822 0 .627.186 1.146.558 1.557.392.392.872.705 1.44.94.568.216 1.332.461 2.292.735 1.155.314 2.076.617 2.762.911.685.294 1.273.725 1.763 1.293.489.568.744 1.322.764 2.262 0 .862-.235 1.636-.706 2.322-.47.666-1.126 1.195-1.968 1.586-.843.392-1.812.588-2.909.588zm12.128-14.545v9.961c0 .98.186 1.656.559 2.028.372.372 1.028.558 1.968.558h1.881v1.763h-2.204c-1.45 0-2.527-.333-3.232-.999-.705-.686-1.058-1.802-1.058-3.35v-9.961h-2.233v-1.733h2.233v-4.026h2.086v4.026h4.408v1.733zm6.86 6.259c0-1.646.323-3.085.969-4.319.666-1.254 1.577-2.214 2.733-2.88 1.175-.686 2.498-1.028 3.967-1.028 1.528 0 2.84.352 3.937 1.057 1.117.706 1.92 1.607 2.41 2.704v-3.526h2.057v16.043h-2.057v-3.555c-.51 1.097-1.323 2.007-2.439 2.732-1.097.705-2.41 1.058-3.938 1.058-1.449 0-2.762-.343-3.937-1.028-1.156-.686-2.067-1.656-2.733-2.909-.646-1.254-.969-2.704-.969-4.349zm14.016.029c0-1.293-.265-2.429-.794-3.408-.529-.98-1.253-1.734-2.174-2.263-.901-.529-1.9-.793-2.997-.793-1.136 0-2.155.255-3.056.764s-1.616 1.254-2.145 2.233c-.509.96-.764 2.106-.764 3.438 0 1.312.255 2.468.764 3.467.529.98 1.244 1.734 2.145 2.263.901.509 1.92.764 3.056.764 1.097 0 2.096-.265 2.997-.794.921-.529 1.645-1.283 2.174-2.262.529-.98.794-2.116.794-3.409zm15.42 8.022-6.611-7.199v7.199h-2.057v-21.744h2.057v12.87l6.464-7.169h2.88l-7.61 7.992 7.669 8.051zm6.478-19.07c-.411 0-.763-.147-1.057-.441s-.441-.656-.441-1.087.147-.783.441-1.058c.294-.294.646-.44 1.057-.44.412 0 .764.146 1.058.44.294.275.441.627.441 1.058s-.147.793-.441 1.087-.646.441-1.058.441zm1.029 3.027v16.043h-2.057v-16.043zm12.18-.294c1.92 0 3.487.597 4.701 1.792 1.215 1.175 1.822 2.89 1.822 5.142v9.403h-2.027v-9.168c0-1.743-.441-3.075-1.323-3.996-.862-.921-2.047-1.381-3.555-1.381-1.548 0-2.782.49-3.702 1.469-.921.98-1.381 2.42-1.381 4.32v8.756h-2.057v-16.043h2.057v2.732c.509-.979 1.243-1.724 2.203-2.233.96-.529 2.047-.793 3.262-.793zm17.801.059c1.508 0 2.821.352 3.937 1.057 1.117.706 1.92 1.597 2.41 2.674v-3.496h2.056v16.454c0 1.47-.323 2.772-.969 3.908-.627 1.137-1.509 2.008-2.645 2.616-1.136.626-2.429.94-3.878.94-2.057 0-3.771-.49-5.142-1.469-1.352-.98-2.194-2.312-2.527-3.997h2.027c.353 1.117 1.019 2.008 1.998 2.674.999.666 2.214.999 3.644.999 1.038 0 1.968-.225 2.791-.675.823-.431 1.469-1.078 1.939-1.94.471-.862.706-1.88.706-3.056v-3.966c-.51 1.097-1.323 2.007-2.439 2.732-1.097.705-2.4 1.058-3.908 1.058-1.469 0-2.792-.343-3.967-1.028-1.156-.686-2.067-1.656-2.733-2.909-.646-1.254-.969-2.704-.969-4.349 0-1.646.323-3.085.969-4.319.666-1.254 1.577-2.214 2.733-2.88 1.175-.686 2.498-1.028 3.967-1.028zm6.347 8.256c0-1.293-.265-2.429-.794-3.408-.529-.98-1.253-1.734-2.174-2.263-.901-.529-1.9-.793-2.997-.793-1.136 0-2.155.255-3.056.764s-1.616 1.254-2.145 2.233c-.509.96-.764 2.106-.764 3.438 0 1.312.255 2.468.764 3.467.529.98 1.244 1.734 2.145 2.263.901.509 1.92.764 3.056.764 1.097 0 2.096-.265 2.997-.794.921-.529 1.645-1.283 2.174-2.262.529-.98.794-2.116.794-3.409z" fill="#d2ecfe"/><path d="m252.888 151.235c-1.841 0-3.349-.421-4.525-1.263-1.155-.862-1.802-2.028-1.939-3.497h2.116c.098.901.519 1.636 1.263 2.204.764.548 1.783.822 3.056.822 1.117 0 1.988-.264 2.615-.793.647-.529.97-1.185.97-1.969 0-.548-.176-.999-.529-1.351-.353-.353-.803-.627-1.352-.823-.529-.215-1.253-.441-2.174-.676-1.195-.313-2.165-.627-2.909-.94-.744-.314-1.381-.774-1.91-1.381-.509-.627-.764-1.46-.764-2.498 0-.783.235-1.508.705-2.174s1.136-1.195 1.998-1.587 1.842-.587 2.939-.587c1.724 0 3.114.44 4.172 1.322 1.058.862 1.626 2.057 1.704 3.585h-2.056c-.059-.941-.431-1.695-1.117-2.263-.666-.588-1.587-.881-2.762-.881-1.038 0-1.881.244-2.527.734s-.97 1.097-.97 1.822c0 .627.186 1.146.559 1.557.391.392.871.705 1.439.94.568.216 1.332.461 2.292.735 1.156.314 2.077.617 2.762.911.686.294 1.274.725 1.763 1.293.49.568.745 1.322.764 2.262 0 .862-.235 1.636-.705 2.322-.47.666-1.126 1.195-1.969 1.586-.842.392-1.812.588-2.909.588zm23.971-9.079c0 .705-.02 1.243-.059 1.616h-13.311c.059 1.214.353 2.252.882 3.114.528.862 1.224 1.518 2.086 1.969.862.431 1.802.646 2.821.646 1.332 0 2.448-.323 3.349-.969.921-.647 1.528-1.518 1.822-2.615h2.174c-.391 1.567-1.234 2.85-2.526 3.849-1.274.979-2.88 1.469-4.819 1.469-1.509 0-2.86-.333-4.055-.999-1.195-.686-2.136-1.645-2.821-2.88-.666-1.253-.999-2.713-.999-4.378s.333-3.124.999-4.378 1.596-2.213 2.791-2.879 2.557-.999 4.085-.999 2.86.333 3.996.999c1.156.666 2.037 1.567 2.644 2.703.627 1.116.941 2.36.941 3.732zm-2.087-.059c.02-1.195-.225-2.214-.734-3.056-.49-.842-1.166-1.479-2.028-1.91s-1.802-.646-2.821-.646c-1.527 0-2.83.489-3.908 1.469-1.077.979-1.674 2.36-1.792 4.143zm7.907-4.29c.45-.999 1.136-1.773 2.056-2.322.941-.548 2.087-.822 3.438-.822v2.145h-.558c-1.489 0-2.684.401-3.585 1.204-.901.804-1.351 2.145-1.351 4.026v8.962h-2.057v-16.043h2.057zm14.289 11.195 5.407-14.045h2.174l-6.435 16.043h-2.321l-6.435-16.043h2.203zm11.397-17.072c-.411 0-.764-.147-1.058-.441s-.44-.656-.44-1.087.146-.783.44-1.058c.294-.294.647-.44 1.058-.44s.764.146 1.058.44c.294.275.441.627.441 1.058s-.147.793-.441 1.087-.647.441-1.058.441zm1.029 3.027v16.043h-2.057v-16.043zm3.717 8.021c0-1.665.333-3.114.999-4.348.666-1.254 1.587-2.214 2.762-2.88 1.175-.686 2.517-1.028 4.026-1.028 1.978 0 3.604.489 4.877 1.469 1.293.979 2.126 2.311 2.498 3.996h-2.204c-.274-1.156-.872-2.057-1.792-2.703-.901-.666-2.028-.999-3.379-.999-1.078 0-2.047.244-2.909.734s-1.548 1.224-2.057 2.204c-.49.96-.735 2.145-.735 3.555 0 1.411.245 2.606.735 3.585.509.98 1.195 1.714 2.057 2.204s1.831.734 2.909.734c1.351 0 2.478-.323 3.379-.969.92-.666 1.518-1.587 1.792-2.762h2.204c-.372 1.645-1.205 2.967-2.498 3.967-1.293.999-2.918 1.498-4.877 1.498-1.509 0-2.851-.333-4.026-.999-1.175-.686-2.096-1.645-2.762-2.88-.666-1.253-.999-2.713-.999-4.378zm33.476-.822c0 .705-.019 1.243-.059 1.616h-13.31c.058 1.214.352 2.252.881 3.114s1.224 1.518 2.086 1.969c.862.431 1.803.646 2.821.646 1.332 0 2.449-.323 3.35-.969.921-.647 1.528-1.518 1.822-2.615h2.174c-.392 1.567-1.234 2.85-2.527 3.849-1.273.979-2.88 1.469-4.819 1.469-1.508 0-2.86-.333-4.055-.999-1.195-.686-2.135-1.645-2.821-2.88-.666-1.253-.999-2.713-.999-4.378s.333-3.124.999-4.378 1.597-2.213 2.792-2.879 2.556-.999 4.084-.999 2.86.333 3.996.999c1.156.666 2.038 1.567 2.645 2.703.627 1.116.94 2.36.94 3.732zm-2.086-.059c.019-1.195-.225-2.214-.735-3.056-.489-.842-1.165-1.479-2.027-1.91s-1.802-.646-2.821-.646c-1.528 0-2.831.489-3.908 1.469-1.077.979-1.675 2.36-1.792 4.143zm11.373 9.138c-1.841 0-3.349-.421-4.525-1.263-1.155-.862-1.802-2.028-1.939-3.497h2.116c.098.901.519 1.636 1.263 2.204.764.548 1.783.822 3.056.822 1.117 0 1.988-.264 2.615-.793.647-.529.97-1.185.97-1.969 0-.548-.176-.999-.529-1.351-.353-.353-.803-.627-1.352-.823-.529-.215-1.253-.441-2.174-.676-1.195-.313-2.165-.627-2.909-.94-.744-.314-1.381-.774-1.91-1.381-.509-.627-.764-1.46-.764-2.498 0-.783.235-1.508.705-2.174s1.136-1.195 1.998-1.587 1.842-.587 2.939-.587c1.723 0 3.114.44 4.172 1.322 1.058.862 1.626 2.057 1.704 3.585h-2.056c-.059-.941-.431-1.695-1.117-2.263-.666-.588-1.587-.881-2.762-.881-1.038 0-1.881.244-2.527.734-.647.49-.97 1.097-.97 1.822 0 .627.186 1.146.559 1.557.391.392.871.705 1.439.94.568.216 1.332.461 2.292.735 1.156.314 2.077.617 2.762.911.686.294 1.274.725 1.763 1.293.49.568.745 1.322.764 2.262 0 .862-.235 1.636-.705 2.322-.47.666-1.126 1.195-1.969 1.586-.842.392-1.812.588-2.909.588z" fill="#3a9d92"/></svg>